a Bernardo Bertolucci film

enjoy

IF YOU LIKE THE MOVIE THEN DO BUY THE ORIGINAL BLURAY/DVD

torrent name

The Conformist (1970) 1080p BRrip_sujaidr

aka Il conformista (original title)

video details
ID                               : 1
Format                           : AVC
Format/Info                      : Advanced Video Codec
Format profile                   : High@L4.1
Format settings, CABAC           : Yes
Format settings, ReFrames        : 4 frames
Muxing mode                      : Header stripping
Codec ID                         : V_MPEG4/ISO/AVC
Duration                         : 1h 52mn
Bit rate                         : 1 726 Kbps
Width                            : 1 792 pixels
Height                           : 1 080 pixels
Display aspect ratio             : 1.659
Frame rate                       : 23.976 fps
Color space                      : YUV
Chroma subsampling               : 4:2:0
Bit depth                        : 8 bits
Scan type                        : Progressive
Bits/(Pixel*Frame)               : 0.037
Stream size                      : 1.33 GiB (91%)

audio details
ID                               : 2
Format                           : AC-3
Format/Info                      : Audio Coding 3
Mode extension                   : CM (complete main)
Muxing mode                      : Header stripping
Codec ID                         : A_AC3
Duration                         : 1h 52mn
Bit rate mode                    : Constant
Bit rate                         : 128 Kbps
Channel(s)                       : 2 channels
Channel positions                : Front: L R
Sampling rate                    : 48.0 KHz
Bit depth                        : 16 bits
Compression mode                 : Lossy
Stream size                      : 103 MiB (7%)

language                           Italian | French | Latin (only a few words)
source                             cinefile                      

subtitle                          English muxed

SAMPLE                  :INCLUDED

uploaded and encoded 
 sujaidr

PLOT:A weak-willed Italian man becomes a fascist flunky who goes abroad to arrange the assassination of his old teacher, now a political dissident.

Director:Bernardo Bertolucci
Stars:              Jean-Louis Trintignant, Stefania Sandrelli and Gastone Moschin
imdb:  http://www.imdb.com/title/tt0065571/

screenshots

                http://img528.imageshack.us/img528/7537/vlcsnap2012031708h06m42.png

                http://img69.imageshack.us/img69/9308/vlcsnap2012031708h08m18.png

                http://img811.imageshack.us/img811/1505/vlcsnap2012031708h10m09.png

                http://img841.imageshack.us/img841/4615/vlcsnap2012031708h10m43.png

GOOGLE SUJAIDR FOR MY FACBOOK PAGE TO POST REQUESTS

SEED BACK AND DO NOT STOP YOUR TORRENT AS SOON AS YOUR DOWNLOAD IS DONE	